<?xml version="1.0" encoding="UTF-8"?><svg id="Layer_2" xmlns="http://www.w3.org/2000/svg" viewBox="0 0 1530.53 681.35"><defs><style>.cls-1{fill:#fff;}</style></defs><g id="Layer_1-2"><g><g><path class="cls-1" d="M610.01,496.76l-19.32,.68c-21.73,.77-43.56,1.62-64.89,2.52l-8.61,.36-3.18,3.96c-.06-2.83-.1-4.43-.1-4.43l-19.31,.75c-11.88,.46-23.75,.94-35.63,1.45l-17.08,.73-1.29-1.62-10.65,1.4c-9.1,1.2-18.2,2.42-27.3,3.65-.11-2.36-.17-3.68-.17-3.68l-19.56,1.55c-12.4,.98-25.12,2.01-37.82,3.07l-7.94,.66-8.66,.08c-10.2,.1-20.41,.21-30.61,.34l-12.02,.15-5.01,10.92c-1.84,4.01-3.69,8.05-5.54,12.09-2.31-3.87-4.62-7.72-6.92-11.56l-6.74-11.24-12.9,2.3c-9.93,1.77-19.86,3.56-29.78,5.36l-16.2,2.94,.61,16.45c.06,1.52,.11,3.05,.17,4.57-4.18-5.83-8.36-11.67-12.52-17.46l-6.41-8.92-10.93,1.11c-10.97,1.11-21.93,2.25-32.89,3.4l-11.2,1.18-4.34,10.39c-1.77,4.22-3.53,8.46-5.3,12.71l-1.76-25.16-19.26,1.68c-21.52,1.88-43.29,3.85-64.71,5.86l-8.57,.81-5.05,6.98c-5.45,7.54-10.88,15.08-16.3,22.62l-4.32,6.01,.89,7.35c3.78,31.33,7.54,62.66,11.3,94l2.22,18.57,18.6-1.93c23.36-2.42,46.98-4.78,70.38-7.02v.49l19.94-1.02c10.58-.54,21.16-1.06,31.74-1.57l11.92-.57,.21,1.5,18.22-1.95c10.07-1.07,20.15-2.13,30.23-3.17l11.87-.62c11.56-.6,23.12-1.18,34.68-1.74l18.96-.92-1.8-37.93,3.52-.44c.61,6.79,3.56,39.87,3.56,39.87l19.43-2.31c9.69-1.15,19.39-2.28,29.09-3.41l.17,3.13,19.93-2.18c12.22-1.34,24.54-2.66,36.62-3.93l13.42-1.42h.21c10.9-.24,21.79-.45,32.69-.65l7.75-.14,.05,1,18.98-1.02c10.97-.59,21.93-1.16,32.9-1.71l.23,3.38,18.68-.97c26.68-1.38,53.74-2.67,80.44-3.82l17.52-.76,.65-17.52c.79-21.26,1.59-42.53,2.39-63.79l.78-20.63-7.46,.34-.94-51.16ZM31.05,660.52c-3.75-31.34-7.52-62.68-11.3-94.01,5.41-7.53,10.83-15.06,16.27-22.58,21.52-2.02,43.05-3.97,64.58-5.85,.75,10.69,1.5,21.38,2.24,32.07-14.77,1.22-29.53,2.47-44.29,3.76,1.23,16.46,2.46,32.92,3.69,49.38,5.91-.75,11.81-1.49,17.72-2.23-.95-9.69-1.91-19.38-2.86-29.06,11.13-1.12,22.26-2.22,33.4-3.3,.29,21.28,.59,42.56,.9,63.84-26.79,2.55-53.58,5.21-80.35,7.98Zm152.36-10.13c-1.09-7.59-2.18-15.17-3.27-22.76-8.78,1.29-17.56,2.59-26.33,3.9,.12,6.6,.24,13.19,.36,19.79-10.6,.51-21.2,1.03-31.8,1.57-.03-22.1-.05-44.2-.06-66.3,6.79-16.45,13.62-32.9,20.49-49.33,10.94-1.15,21.88-2.28,32.82-3.39,10.07,14,20.09,28.02,30.08,42.05,3.64,23.66,7.27,47.33,10.87,71-11.06,1.14-22.11,2.3-33.16,3.48Zm120.23-7.24c-1.78-19.95-3.57-39.91-5.37-59.86-2.76,7.04-5.51,14.09-8.26,21.13-6.66,.83-13.31,1.66-19.96,2.51-3.84-7.01-7.69-14.03-11.55-21.04,.93,19.63,1.86,39.25,2.79,58.88-11.58,.56-23.17,1.14-34.75,1.74-1.39-37.18-2.77-74.37-4.15-111.55,9.9-1.8,19.81-3.58,29.72-5.35,8.52,14.22,17.01,28.45,25.46,42.7,6.82-15.03,13.67-30.05,20.56-45.07,10.18-.13,20.37-.24,30.55-.34,3.15,37.41,6.29,74.81,9.41,112.22-11.49,1.32-22.97,2.67-34.45,4.03Zm49.38-2.48c-2.11-38.19-4.22-76.39-6.34-114.58,12.58-1.05,25.16-2.07,37.74-3.07,1.77,37.9,3.53,75.8,5.29,113.71-12.23,1.29-24.47,2.6-36.69,3.94Zm110.77-6.24c-.62-11.57-1.24-23.13-1.86-34.7-8.56-10.02-17.15-20.02-25.76-30.01,.5,21.61,1.01,43.23,1.51,64.84-10.92,.2-21.84,.41-32.76,.64-1.65-36.49-3.29-72.98-4.95-109.47,10.81-1.46,21.63-2.91,32.45-4.33,9.6,12.05,19.17,24.12,28.71,36.2-.45-12.19-.91-24.37-1.36-36.56,11.85-.5,23.7-.99,35.56-1.44,.82,37.69,1.64,75.37,2.47,113.06-11.34,.57-22.68,1.16-34.01,1.77Zm132.45-3.13c-26.87,1.16-53.74,2.44-80.6,3.83-2.13-31.49-4.28-62.98-6.43-94.47,5.79-7.24,11.59-14.48,17.4-21.71,21.58-.91,43.17-1.75,64.76-2.51,.2,10.72,.39,21.43,.59,32.15-14.8,.46-29.6,.95-44.4,1.47,.38,16.5,.76,33.01,1.14,49.51,5.93-.44,11.87-.88,17.8-1.32-.45-9.72-.91-19.45-1.36-29.17,11.17-.54,22.34-1.07,33.51-1.57-.81,21.27-1.6,42.53-2.39,63.8Z"/><path class="cls-1" d="M162.25,565.63c-2.91,7.16-5.82,14.32-8.72,21.48-.08,5.56-.15,11.12-.23,16.68,7.58-.92,15.17-1.84,22.75-2.74-.68-4.96-1.37-9.91-2.05-14.87-3.91-6.85-7.83-13.7-11.76-20.55Z"/><path class="cls-1" d="M1514.83,593.39l8.69,.63,7.01-67.34-19.86-1.15c-21.21-1.23-42.66-2.4-63.76-3.48l-3.45-.18,.18-2.39-19.74-.71c-12.95-.47-26.15-.92-39.24-1.34l-.67-.02-.67,.03c-10.12,.39-20.24,.8-30.35,1.23l-11.8,.5-7.62-1.71c-9.34-2.1-18.68-4.19-28.03-6.26l-2.06-.46h-2.11c-16.26,.05-32.79,.14-49.25,.28l.19-2.61-19.88-.57c-21.12-.61-42.58-1.15-63.8-1.62l-5.6-.12-2.85,1.75-6.73-.58c-11.94-1.03-24.16-2.07-36.31-3.07l-16.17-1.34-1.15,4.69-1.31-6.65-16.41,.82c-12.55,.63-25.27,1.29-37.8,1.96l-15.84,.86-2.86-4.83-10.99,.14c-11.02,.14-22.03,.31-33.04,.49l-11.26,.19-.54,1.03-.1-3.93-18.54,.03c-25.44,.04-51.16,.19-76.67,.43l.05-1.49-19.89,.22c-21.22,.23-42.69,.54-63.8,.91l-5.6,.1-1.34,.9v-.2l-17.63-.64c-10.19-.37-20.39-.72-30.58-1.06l-12.01-.4-5.51,10.68c-2.02,3.92-4.05,7.86-6.08,11.81-2.12-3.96-4.25-7.91-6.37-11.85l-6.21-11.54-12.99,1.71c-10,1.31-19.99,2.64-29.98,3.99l-16.32,2.2-.15,16.46c-.33,37.21-.66,74.42-.97,111.64l-.16,19.28,19.28-.12c11.57-.07,23.14-.12,34.71-.15l18.98-.05-.05-37.97c1.17-.09,2.35-.19,3.52-.28,.3,6.81,1.73,39.99,1.73,39.99l19.51-1.42c9.1-.66,18.21-1.3,27.31-1.93v.11l18.98,.18c24.14,.23,48.61,.56,72.74,.97l13.81,.24-.02,.96,19.97-.65c12.17-.4,24.35-.77,36.21-1.12l5.24-.15-.13,1.55,19.95,.74c10.58,.39,21.16,.8,31.74,1.23l11.91,.48,.08,1.51,18.32-.33c11.09-.2,22.17-.38,33.26-.54l16.34-.24,.45,1.64,14.69-.23c12.63-.19,25.44-.36,38.08-.51l13.58-.15,4.25-12.9c1.2-3.65,2.42-7.31,3.62-10.97-.73,15.17-1.24,25.58-1.24,25.58l18.96,.93c22,1.08,44.26,2.26,66.3,3.49l-.06,1.42,19.06,.67c12.04,.42,24.15,.87,35.99,1.33l12.38,.48,4.42,9.53,16.54-6.28c5.63-2.14,11.31-4.28,17-6.43l.27,9.51,19.08-.63c21.25-.7,42.81-1.33,64.19-1.89-.13,1.71-.21,2.66-.21,2.66l18.93,1.48c24.11,1.89,48.52,3.9,72.55,5.97l18.38,1.59,2.12-18.33,5.8-49.87-14.24-.74,1.62-17.82Zm-779.64,38.47c-.87-20.02-1.74-40.03-2.61-60.05-3.08,6.91-6.15,13.82-9.22,20.73-6.69,.52-13.37,1.05-20.05,1.59-3.51-7.18-7.04-14.37-10.57-21.55,.03,19.65,.05,39.3,.08,58.95-11.59,.03-23.19,.08-34.78,.15,.32-37.21,.64-74.42,.97-111.63,9.97-1.34,19.94-2.67,29.92-3.98,7.86,14.6,15.68,29.2,23.47,43.82,7.5-14.7,15.03-29.39,22.6-44.08,10.18,.34,20.35,.69,30.52,1.06,1.44,37.51,2.85,75.02,4.26,112.53-11.53,.8-23.07,1.61-34.59,2.45Zm120.74-.72c-24.29-.42-48.59-.74-72.89-.97,.31-36.22,.63-72.43,.95-108.65,2.37-1.6,4.75-3.19,7.13-4.79,21.22-.37,42.45-.68,63.67-.91-.34,9.79-.68,19.58-1.02,29.37-11.82-.05-23.65-.07-35.47-.08-.15,4.93-.3,9.85-.46,14.78,8.89-.01,17.77-.01,26.66,0-.2,9.05-.4,18.11-.6,27.16-9.29-.2-18.59-.39-27.88-.56,.03,5.17,.07,10.35,.1,15.52,13.73-.3,27.47-.56,41.21-.8-.47,9.97-.93,19.95-1.4,29.92Zm14.69-49.15l-7.6,.13,.3-13.57c3.75-.09,6.78-.16,7.54-.18l-.24,13.63Zm51.88-33.32c.86,27.3,1.7,54.61,2.53,81.91-12.1,.35-24.19,.72-36.29,1.12,.48-27.59,.97-55.18,1.46-82.77-8.96,.19-17.92,.39-26.88,.61-.01-10.78-.03-21.56-.04-32.34,29.28-.32,58.56-.5,87.85-.54,.29,10.97,.57,21.94,.85,32.91-9.83-.32-19.65-.62-29.48-.9Zm89.84,86.94c-.42-7.65-.83-15.3-1.25-22.95-8.86,.51-17.71,1.03-26.56,1.56-.46,6.58-.92,13.16-1.38,19.74-10.6-.43-21.2-.84-31.8-1.24,1.92-22.02,3.84-44.03,5.78-66.05,8.21-15.79,16.46-31.57,24.74-47.34,10.99-.18,21.99-.34,32.98-.49,8.79,14.83,17.54,29.68,26.25,44.54,1.54,23.89,3.07,47.78,4.58,71.68-11.11,.16-22.22,.34-33.33,.55Zm102.96,.12c-12.72,.14-25.44,.31-38.16,.51-10.47-37.88-21.08-75.74-31.83-113.58,12.57-.68,25.14-1.33,37.72-1.96,4.97,25.19,9.89,50.38,14.77,75.57,5.88-24.38,11.8-48.76,17.75-73.14,12.08,1,24.16,2.02,36.24,3.07-12.29,36.49-24.45,73-36.49,109.53Zm104.53-65.27c-.56,9.04-1.12,18.08-1.67,27.11-9.28-.57-18.56-1.12-27.84-1.66-.17,5.17-.34,10.34-.51,15.51,13.74,.25,27.48,.53,41.22,.84-.86,9.95-1.72,19.9-2.58,29.84-24.27-1.38-48.54-2.67-72.81-3.86,1.75-36.18,3.5-72.35,5.25-108.53,2.44-1.5,4.87-3,7.31-4.5,21.23,.47,42.45,1,63.68,1.61-.73,9.77-1.46,19.54-2.18,29.31-11.82-.52-23.63-1.01-35.45-1.48-.35,4.92-.69,9.83-1.04,14.75,8.88,.34,17.76,.69,26.64,1.05Zm82.76,79.66c-6.43-13.88-12.9-27.75-19.39-41.62-2.06,.32-4.13,.64-6.19,.96-.09,11.9-.18,23.8-.27,35.7-12.02-.47-24.04-.91-36.07-1.34,1.48-37.92,2.96-75.83,4.44-113.75,18.76-.16,37.52-.27,56.29-.33,9.33,2.07,18.65,4.15,27.97,6.25-.29,20.65-.58,41.31-.88,61.96-4.27,1.84-8.54,3.69-12.81,5.54,6.98,11.27,13.93,22.54,20.86,33.82-11.33,4.25-22.65,8.52-33.95,12.81Zm119.72-56.11c-2.28,18.43-4.55,36.85-6.81,55.28-23.49,.6-46.97,1.28-70.44,2.06-.35-12.36-.7-24.73-1.06-37.09,13.43,1.56,26.85,3.16,40.27,4.78,.42-3.49,.83-6.98,1.25-10.47-12.61-8.42-25.26-16.82-37.94-25.19,2.06-15.24,4.12-30.48,6.19-45.72,10.1-.42,20.2-.83,30.3-1.22,13.05,.42,26.11,.86,39.16,1.33-.77,10.26-1.55,20.51-2.32,30.77-11.18-.71-22.37-1.4-33.56-2.08-.61,2.61-1.22,5.23-1.82,7.84,12.29,6.55,24.55,13.11,36.79,19.71Zm84.22-20.27c-11.8-.86-23.6-1.7-35.41-2.52-.49,4.9-.98,9.81-1.47,14.71,8.87,.6,17.74,1.21,26.61,1.83-.82,9.02-1.64,18.04-2.46,27.05-9.26-.84-18.53-1.67-27.79-2.48-.32,5.16-.64,10.33-.96,15.49,13.73,.65,27.46,1.33,41.19,2.04-1.15,9.92-2.31,19.84-3.46,29.76-24.23-2.09-48.46-4.08-72.7-5.99,2.8-36.11,5.61-72.22,8.42-108.33,2.48-1.43,4.96-2.86,7.44-4.29,21.21,1.09,42.42,2.24,63.63,3.47-1.01,9.74-2.03,19.49-3.04,29.23Z"/><path class="cls-1" d="M998.73,549.31c-3.53,6.88-7.05,13.75-10.57,20.63-.56,5.53-1.13,11.06-1.69,16.59,7.63-.25,15.26-.5,22.9-.73-.24-5-.49-9.99-.73-14.99-3.29-7.17-6.6-14.34-9.91-21.51Z"/><path class="cls-1" d="M1275.46,582.91c6.35-.15,12.7-.3,19.06-.43,.51-8.05,1.03-16.11,1.54-24.16-6.53-.24-13.07-.48-19.6-.71-.33,8.43-.66,16.87-.99,25.3Z"/></g><g><path class="cls-1" d="M1476.99,238.98v-98.11l-61.36-77.15-161.12-15.15-82.79,50.93h-.01l-2.84-34.9h0l-1.92-23.47-3.41-.31-20.03-1.84-209.53-19.16-3.31-.3,.52-2.52-152.81-10.64,.25-6.36-138.28,16.86-.03,.36-12.67,1.36-12.05,1.3-.26,.03-272.82,29.39h-.01l1.11-7.26-164.39,17.74-1.59,2.37-4.65-1.64-6.55,.83-87.99,11.06-19.25,2.41-4.5,18.87-21.05,88.27-3.77,15.77,15.11,14.22-6.45,48.06-18.33,40.3,42.93,198.03,104.87-11.14,141.21-15,4.66-.49h0v.03l-.23,1.23-.04,.24-.05,.26,131.31-14.82,26.57-3-.03-.56h.09l119-12.64,.47-1.88,18.56-1.81,127.37-12.39,11.66-1.14h.16v.02l25.26,2.49,209,20.56,7.37,.72,3.61-1.62,4.03,2.38h.04l.54,.32,140.35,14.09-.53-2.6h.02l106.43,12.06,43.74,4.95,1.51,.17-1.17-3.13h.05l161.25,20.43,27.61,3.49,10.69-80.39,17.04-128.26,1.5-11.22-30.08-40.7ZM306.26,444.35l-221.08,23.48-35.63-164.39,16.19-35.63,8.91-66.41-13.77-12.95,21.06-88.27,87.99-11.06,18.9,6.63,6.39-9.54,115.26-12.43-16.58,109.24-47.27,4.15-3.73-9.12-88.31,9.95,17.42,10.78-18.45,45.14,106.75-15.71,8.71,26.95-43.48,50.17-89.14,21.56,18.7,14.89,3.77,36.16,89.08-20.24,38.06-38.06,42.11,1.62-21.86,123.09Zm135.48-13.53l-93.96,10.6,49-272.15-67.74,12.14-11.15-12.83,12.72-89.83,300.04-32.33-26.27,83.35-131.33,29.4-33.33,241.34,2.02,30.31Zm315.19-178.82l-17.1,12.71-5.63,133.78-93.45,9.09,11.12-112.64-75.77,19.7-5.05,30.31,12.62,8.08-15.65,63.64-100.02,10.61,17.18-71.73,13.63-172.75,89.92-21.72-4.55,61.63,69.71-16.17,12.62-164.66,82.84-10.11-6.06,153.56h13.64v66.67Zm250.52,170.84l-11.75-6.91-10.02,4.49-208.95-20.56v-50.17l12.14-28.23-2.17-165.25-8.16-121.77,118.67,8.26-17.27,82.6,2.76,220.82,136.85,3.11,12.09-13.17,53.92,7.25,18.31,89.21-96.42-9.68Zm142.4,11.86l-47.96-124.84-26.54-9.01-55.17-7.44-13.49,33.41-82.23,.92,65.46-212.93-17.92-63.4,168.96,15.46,9.53,116.89,97.51,262.05-98.15-11.11Zm303.9,33.58l-177.43-22.47-54.57-139,18.19-26.87,90.4,34.98,7.83,41.98-16.51,5.6,67.72,9.51-1.11-58.49-165.12-61.01-43.37-125.09,81.43-50.09,82.01,7.71,57.92,5.44,47.85,60.17v68.84l-70.52-13.99-5.44-40.3-35.98-14.55-51.49,13.43,8.95,30.22,79.24,25.73,71.61,23.25,32.46,43.94-24.07,181.06Z"/><polygon class="cls-1" points="1033.33 233.48 1060.6 229.5 1086.23 233.48 1063.14 154.22 1033.33 233.48"/></g></g></g></svg>